<svg id="Layer_1" data-name="Layer 1" xmlns="http://www.w3.org/2000/svg" viewBox="0 0 860.24 860.24"><defs><style>.cls-1{fill:#ffa436;}.cls-2{fill:#fff;}</style></defs><path class="cls-1" d="M300.83,0h254.1A305.31,305.31,0,0,1,860.24,305.31V554.93A305.31,305.31,0,0,1,554.93,860.24H305.31A305.31,305.31,0,0,1,0,554.93V300.83A300.83,300.83,0,0,1,300.83,0Z"/><path class="cls-2" d="M570.62,279.82V386.5H528.29V291.57c0-19.82-8.07-38.66-31.56-38.66-23.25,0-31.56,18.84-31.56,38.66V386.5H422.84V279.82c0-46.73,33.52-66.55,73.89-67C537.34,212.29,570.62,233.09,570.62,279.82Z" transform="translate(-66.6 -65.99)"/><rect class="cls-2" x="192.07" y="266.51" width="476.12" height="446.95"/><path class="cls-1" d="M323.75,581.46V331.72h99.09V554c0,46.4,18.9,90.5,73.89,90.5,54.41,0,73.88-44.1,73.88-90.5V331.72H669.7V581.46c0,109.4-78.46,155.79-173,156.94C401.64,739.54,323.75,690.86,323.75,581.46Z" transform="translate(-66.6 -65.99)"/></svg>